<svg width="39" height="37" fill="none" xmlns="http://www.w3.org/2000/svg"><g clip-path="url(#clip0_1477_6)"><path d="M36 18.5C36 28.165 28.165 36 18.5 36S1 28.165 1 18.5 8.835 1 18.5 1 36 8.835 36 18.5z" stroke="#EFCFAD" stroke-width="2"/><path d="M36.093 12.772a18.436 18.436 0 00-2.18-4.506L17.719 25.132l.032 1.877.765-.004 17.577-14.233z" fill="#A4907D"/><path d="M39 6c-.237-1.228-2.5-2-2.5-2-.45-.445-3.05 2.056-3.5 2.5L18.073 22 11.5 14.5c-.451-.445-1.55-.945-2-.5l-2.139 1.43a1.13 1.13 0 000 1.61l9.76 9.643c.26.258.613.361.952.321.339.04.692-.064.952-.32L37.03 8.893C37.48 8.45 39.26 7.343 39 6z" fill="#fff"/><path d="M19.024 26.682L37.03 8.893C38.5 8 39.45 6.445 39 6c-.45-.445-2.51.75-2.51.75L17.97 24.967l-10.2-9.943-.409.404a1.13 1.13 0 000 1.611l9.76 9.643c.26.257.613.36.952.32.339.04.691-.063.951-.32z" fill="#EFCFAD"/></g><defs><clipPath id="clip0_1477_6"><path fill="#fff" d="M0 0h39v37H0z"/></clipPath></defs></svg>