<svg width="32" height="32" fill="none" xmlns="http://www.w3.org/2000/svg"><defs><clipPath id="a"><rect rx="-.5" width="31" height="31" transform="translate(.5 .5)" fill="#fff" fill-opacity="0"/></clipPath></defs><rect rx="-.5" width="31" height="31" transform="translate(.5 .5)"/><g clip-path="url(#a)" stroke="#D5C9BE" stroke-width="2" stroke-linejoin="round"><path d="M23.99 5.33c1.48 0 2.67 1.19 2.67 2.66v16c0 1.48-1.19 2.67-2.67 2.67h-16c-1.47 0-2.66-1.19-2.66-2.67v-16c0-1.47 1.19-2.66 2.66-2.66h16z"/><path d="M10.66 14.66v6.67m0-10.67v.02M16 21.33v-6.67m5.33 6.67v-4c0-.71-.28-1.39-.78-1.89a2.671 2.671 0 00-3.77 0c-.5.5-.78 1.18-.78 1.89" stroke-linecap="round"/></g></svg>