<svg width="58" height="47" fill="none" xmlns="http://www.w3.org/2000/svg"><path fill-rule="evenodd" clip-rule="evenodd" d="M23.203 3.844a1.224 1.224 0 01-.75.197v.003c-3.044 0-5.562 2.2-5.584 3.51 0 .646.504.947 1.185 1.073 2.323.402 3.607 1.323 5.388 4.156 1.34 2.086 3.017 4.723 4.05 6.349.536.844.9 1.415.952 1.495.225.346.35.383.515.383.166 0 .299-.034.534-.383.051-.083.448-.704 1.028-1.612a1822.73 1822.73 0 003.974-6.24c1.829-2.844 3.07-3.75 5.388-4.151.688-.127 1.185-.427 1.185-1.074 0-1.307-2.503-3.51-5.565-3.51a1.218 1.218 0 01-1.233-.809A6.018 6.018 0 0032.07.87a5.939 5.939 0 00-6.184 0 5.99 5.99 0 00-2.2 2.362 1.219 1.219 0 01-.483.613zm-1.95 11.346c-2.51-3.948-5.624-5.222-8.561-5.222h-.004c-3.908 0-5.322 2.072-5.322 2.916 0 .341.18.646.773.646 2.786 0 4.538 1.667 5.896 3.9a3094.482 3094.482 0 008.2 13.303c.04.081.103.156.18.204.082.052.17.078.262.078a.534.534 0 00.464-.275c.095-.156 3.654-5.805 3.739-5.924a.679.679 0 00.118-.364.617.617 0 00-.114-.349c-.067-.122-4.354-6.911-5.631-8.913zm-.884 31.156a4.91 4.91 0 002.455.654 4.865 4.865 0 004.27-2.444c.986-1.586 15.46-24.894 16.815-27.123 1.355-2.228 3.103-3.9 5.893-3.9.592 0 .776-.304.776-.646 0-.843-1.431-2.915-5.34-2.915-2.948 0-6.05 1.274-8.56 5.222-1.289 1.998-11.274 17.882-13.386 21.284-.093.16-.273.412-.527.412s-.383-.156-.544-.412a7401.158 7401.158 0 01-10.026-15.896c-2.348-3.78-5.064-4.701-7.398-4.701-3.095 0-4.799 1.623-4.799 2.696 0 .382.166.795.902.795 1.862 0 2.561.977 4.615 4.32 1.557 2.461 13.05 20.853 13.05 20.853a4.929 4.929 0 001.804 1.801zm32.108-22.655c2.058-3.342 2.753-4.32 4.616-4.32h.003c.73 0 .902-.412.902-.794 0-1.073-1.704-2.696-4.8-2.696-2.325 0-5.023.92-7.397 4.701 0 0-14.549 23.086-14.644 23.25a1.064 1.064 0 00-.269.557c.033.208.125.397.269.546a5.006 5.006 0 001.777 1.522c.703.357 1.48.543 2.267.543a4.87 4.87 0 002.452-.654 4.929 4.929 0 001.803-1.801S50.954 26.153 52.477 23.69z" fill="#D5C9BE"/></svg>