<svg version="1.0" xmlns="http://www.w3.org/2000/svg" width="1365.333" height="1365.333" viewBox="0 0 1024 1024"><path d="M348.9 310.7c0 .5-.1 2.4-.2 4.3l-.2 3.5-5.3.3-5.4.3.4 5 .3 4.9H329v9h-4.5c-2.5 0-4.5.4-4.6 1 0 .5-.1 2.6-.1 4.5s.1 3.9.1 4.5c.1.5 2.4 1 5.2 1h5.1l-.3-4.8-.3-4.7h8.9l.5-5 .5-5 4.8.3 4.7.3V320h326v11h8.9l.3 5.2.3 5.3 4.2.3c4.2.3 5.8 2 5.1 5.3-.2 1 1.3 1.5 5.5 1.7l5.7.3V364h4.4c4.2 0 4.4.1 5 3.5.4 2 .7 16 .6 31.3-.1 15.2-.1 28.5-.1 29.4.1 1.4 1 1.8 4.6 1.8h4.5v-65.7c0-.4-1.8-.6-4-.4l-4 .3V347h-9.9l-.3-4.8-.3-4.7-4.7.3-4.8.3V327h-10v-8h-4.5c-4.3 0-4.5-.1-4.5-2.9 0-1.6-.3-3.6-.6-4.5-.6-1.5-15.9-1.6-164-1.6-89.9 0-163.4.3-163.5.7z"/><path d="M605 334.5c0 2.3-.4 2.5-4.5 2.5H596v12h-4.9c-5.2 0-6.1.8-6.1 5.7 0 2.3-.3 2.4-4.7 2.2l-4.8-.3-.8 7.2-.9 7.2h-7.9l.3 31.7c.2 24.5.6 31.8 1.6 31.9.6.1 2.6.2 4.2.3 2.8.1 3 .3 3 4.1v4h9v9h10v9h4.5c4 0 4.5.2 4.5 2.3 0 2-.5 2.3-3.7 2.3h-3.8l-.5 4.9-.5 5-8.2.3-8.3.3v-10.3l-6.5.4-6.5.4V457h-71v20h-10v-10h-15v-10.3l-25.9.7-25.9.8-.4-3.7c-.5-4.2.4-4.9 5.7-4.2 3.4.5 3.5.4 3.5-2.9 0-3.2.2-3.3 4.3-3.6 2.4-.2 4.3-.8 4.3-1.6.1-.6.2-3 .3-5.3l.1-4.1 4.3.4 4.2.3.5-12 .5-12 4-.1h4l.7-6c.4-3.2.7-9.6.6-14.2l-.2-8.2h-9.5l-.3-7.8c-.2-5.2-.7-7.7-1.5-7.8-.7-.1-2.6-.2-4.2-.3-2.7-.1-3-.5-3.3-3.9-.3-3.6-.4-3.7-4.5-4-3.7-.3-4.3-.6-4.3-2.5 0-3.7-1.3-4.6-7-4.9l-5.5-.3-.1-8c-.1-7.4-.3-7.9-2.3-7.8-1.1 0-12.4.1-25.1.2l-23 .1v7h-15v16h-10.9l-.3 4.2c-.2 2.5-.8 4.4-1.5 4.4-.7.1-2.4.2-3.8.3-2.3.1-2.5.5-2.5 4.6v4.5h-9v38.3l3.9-.7c3.4-.5 3.9-.3 4.5 1.7.3 1.2.6 3.9.6 5.9 0 3.7.1 3.8 3.5 3.8h3.5v6.5c0 5.1.3 6.5 1.5 6.5 1 0 1.5 1.1 1.5 3.5 0 3.5 0 3.5 4.5 3.5 4.3 0 4.5.1 4.5 3v3h14.8l.4 4 .4 4H339v-3.5c0-3.5 0-3.5-4.5-3.5s-4.5 0-4.5-3.5V444h-10v-13.9l-5 .6-5 .6V361h10v-12h-11v9.9l-4.2.3-4.3.3-.3 35.2-.2 35.3h9v7.9c0 8.5.4 9 6.8 9.1 2 0 2.2.5 2.2 5v5h-63v9.9l-5.7.3-5.8.3v9l-5.7.3-5.8.3V580h11v9h5.5c4.8 0 5.5.2 5.5 2 0 1.9-.7 2-23.5 2-21.5 0-23.5.1-23.5 1.7 0 1.3-.3 1.4-1.2.5-.9-.9-8.8-1.2-29.5-1.2H148v94.9l7.3.3 7.2.3v8.5h8.5v9h68.9l-.2-4.3-.2-4.2 4.3-.3 4.2-.3v-4.5c0-3.7.3-4.4 2-4.4 1.9 0 2 .7 2 9v9h48v-9c0-8.3.1-9 2-9 2.1 0 2.2.3 2.5 6 .1 3.4.2 3.5 4.8 3.8l4.7.3v7.9h87.9l.3-13.7.3-13.8 2.8-.3c2.6-.3 2.7-.2 2.7 4.7v5.1h10v9h8.8l-.6 4.5-.5 4.5h45.8l-.3-4.5-.4-4.5h8.2v-9h9v-5.1c0-4.9.1-5 2.8-4.7l2.7.3.3 14.3c.2 12.5.5 14.3 1.8 13.8.9-.3 33.2-.6 71.9-.6h70.4l.4-4.8.3-4.7.2 4.7.2 4.8h123v-8h9v8l51 .2 51 .3v-46h-6.5l-.3-10.2-.3-10.2 3.3-.3 3.3-.3.3-23.3.2-23.2h-79v-46h-13v-32.9l6.3-.3 6.2-.3.3-28.8.2-28.7h-44.5c-41.7 0-44.5-.1-44.5-1.8 0-1.4-.9-1.7-6.2-1.6-5.5 0-6.3.2-6.3 2 0 1.7-.8 1.9-7.5 2.2l-7.5.3V451h4.6c4.1 0 4.6-.2 4.6-2.3.1-1.2.1-4.5.2-7.2l.1-5.1 4 .4 4 .4v-10.4l5 .4 5 .3V371h-8.8l-.7-7.6-.8-7.6-4.3.5-4.4.5v-9l-4.7.4-4.8.3-.3-4.5-.3-4.5-4.4.3-4.5.4V332h-62v2.5zm-200 35.2V382l10.8.1c6.4.1 9.2.4 7 .8l-3.7.6.1 10.3c0 5.6-.2 10.5-.6 10.9-.3.3-4.1.7-8.3.8-4.3.1-8.6.3-9.5.4-1.6.1-1.8 1.3-1.8 11.1v11.1l-9.7-.3-9.6-.3-.1-6.7c-.1-3.6-.4-6.9-.8-7.3-.4-.4-7.3-.8-15.5-1l-14.8-.2-.3-14.6-.3-14.6 12.3-.3 12.3-.3.3-12.5.3-12.5H405v12.2zm279 26.2v14l-2.7.3c-2.2.2-2.9.9-3.1 3l-.3 2.8h-21.8l-.3-2.8c-.2-2.2-.8-2.8-3.5-3l-3.3-.3V387h3c2.5 0 3-.4 3-2.5V382h29v13.9zm-258.2 1.8c-.2 14-.5 12.3-1-4.5-.2-5 0-9.2.5-9.2.4 0 .6 6.2.5 13.7zm-18.1 11.6c.3.4-.5.7-2 .7-1.4 0-3.3.3-4.3.7-1.6.6-1.6.5-.5-.8 1.4-1.5 5.5-1.8 6.8-.6zm-2.2 2.3c-.6.2-.9 4.8-.7 11.6.2 6.2.1 11-.2 10.7-.7-.7-1.4-21.8-.7-22.4.2-.3.9-.5 1.5-.4.7 0 .7.2.1.5zm241.7 2.6c.2 2.5.8 3.4 2.6 3.6 2.1.3 2.2.7 2.2 12.4v12l-3-.6c-2.8-.5-3-.3-3 2.4v3h-21.9l-.3-2.8c-.2-2.2-.8-2.8-3.5-3l-3.3-.3V417h2.5c2.1 0 2.5-.5 2.5-3v-3h24.9l.3 3.2zM402 416c0 1.1-.2 2-.4 2s-.6-.9-.9-2c-.3-1.1-.1-2 .4-2s.9.9.9 2zm0 17c0 .6-3.5.9-8.7.8l-8.8-.2 8.5-.6c4.7-.3 8.6-.7 8.8-.8.1-.1.2.2.2.8zm-19.7.7c-1.3.2-3.5.2-5 0-1.6-.2-.5-.4 2.2-.4 2.8 0 4 .2 2.8.4zm7.7 28.8v4.5h-11v10h-8v-19h19v4.5zm-29.2 23.7l.2 17.8h-63l-.2 21.2c-.1 11.7-.3 19.4-.5 17.1-.4-4-.5-4.1-3.6-3.9l-3.2.2-.3 10.7c-.2 7.1.1 10.7.8 10.7.8 0 .8.6 0 2-.6 1.1-.7 2-.2 2 .5 0 1.5-1.1 2.2-2.5.7-1.3 1.6-2.2 2-2 .4.3 1.3-.2 2-1 .8-1 3-1.5 6.1-1.5h4.9l.2-20.8.3-20.7h52l.3 35.9c.1 19.8 0 35.7-.4 35.4-.3-.3-.6-11.2-.6-24.2l-.1-23.6H353v43h-80.8l.2-5.3.1-5.2-8.8-.3-8.8-.3.3 3.3c.3 3.1.6 3.3 4.8 3.9l4.5.6-5.3.1-5.2.2.1-7.6c.1-9-.8-10.5-4.5-7.1-1.4 1.3-2.3 2.7-1.9 3.1.4.4 0 .4-1 0s-1.7-.1-1.7.6c0 .8 1.3 1.1 4 .8 2.2-.2 4 0 4 .4 0 .5-2.5.8-5.5.8H242v-81h12v-11.2l5.5.4 5.5.3v-4.6c0-2.5.3-4.9.7-5.2.3-.4 21.8-.6 47.7-.5l47.1.3.3 17.7zm94.1-17.6c2.9.6 3.1.9 3.1 5v4.4h16v15h5.3c2.8 0 7.6.3 10.5.7l5.3.6-.2 23.1c-.1 12.7-.5 27.6-.9 33.1l-.8 10 .1-10.5.1-10.4-3.2-.7-3.2-.6V582h-33.1l-4.9 4.6-5 4.7V549h-21v20.5c0 18.9-.1 20.5-1.7 20.4-1.1 0-1.3-.3-.5-.6.9-.3 1.2-4.8 1.1-18.1-.1-10.4-.5-16.3-.9-14.2-.7 3.4-.7 3.4-.9.6l-.1-2.9-2.5 2.3c-2.4 2.2-2.5 2.9-2.5 13.7V582h-34.4l-4.8 4.7-4.8 4.7V494h18v-16h11v-10h25.9c14.2 0 27.3.3 29 .6zm80.7.4H555v24h11v10h10v10h12.2l-.4-5-.3-4.9 4.5-.3 4.5-.3.3-4.8.3-4.7h9.9v-8.8c0-4.8.3-10.4.6-12.5l.7-3.7H660v71h-8v43h-35.8l-3.6 4c-2 2.2-4 4-4.6 4-.6 0-1.1-8-1.2-20.8l-.3-20.7h-4c-2.2 0-4.6-.4-5.3-.8-.7-.5-1.2-.5-1.1 0 .1.4.1 5 0 10l-.1 9.3h-9.9c-7 0-10-.4-10.4-1.3-.3-.9 1.8-1.2 9.3-1.1 7.8.1 9.7-.2 9.3-1.3-.3-.7-.9-1.3-1.5-1.3-.5 0-.7.3-.5.7.3.5-3.5.7-8.4.5-4.9-.2-8.9-.6-8.9-1s3.8-.6 8.5-.4c5.6.2 8.5 0 8.5-.7 0-.6-.4-1.1-1-1.1-.5 0-1-1.4-1-3.1 0-1.7.4-2.8 1-2.4.6.3 1-.1 1-1.1 0-.9.8-2.3 1.8-3 1.6-1.2 1.6-1.3 0-1.9-2.3-.9-2.3-2.7-.2-2.3 1 .2 1.9-.4 2.1-1.2.4-1.3.3-1.3-.6 0-.6.8-1.1 1-1.1.4s-.7-1.1-1.5-1.1c-1.1 0-1.5 1.3-1.7 4.6l-.1 4.6-.7-5-.7-5-.3 5c-.1 2.7-.3 6.2-.4 7.7-.2 3.7-.7 4-7.1 3.9-4.3 0-6.4.5-8.6 2.1-1.6 1.2-2.8 2.7-2.5 3.4.3.7-.5 1.1-2 1.1-2.4 0-2.4-.1-2.4-8.5 0-6.9.3-8.7 1.8-9.8 1.4-1.1 1.1-1.2-2-.4-2.1.4-3.8.5-3.8.1 0-1-10-.7-10.2.4-.1.5.7 1.1 1.8 1.2 1.8.3 1.8.2-.1-.6-1.9-.9-1.9-1 .3-1l2.2-.1v21c0 11.5-.3 21-.7 21-.5 0-.6-8.8-.5-19.6.4-18.5.3-19.5-1.5-19.2-1 .2-2.1 1-2.5 1.8-.4.8-.7-1.1-.6-4.2.1-3.2-.1-6.1-.5-6.5-.4-.3-.8 1.8-.9 4.8-.1 3-.2 6.7-.3 8.4-.1 1.6-.2 8.3-.3 14.7L548 582h-34.1l-3.6 3.5-3.6 3.5 23.4.3 23.4.2-24.7.3-24.8.2V467.7l6.1.7c3.4.3 14.9.6 25.5.6zm248.2 17.2l.2 17.8h-59.8l-.4 5.2c-.2 2.9-.4 5.4-.3 5.5 0 .1 10.2.3 22.7.4 12.5.1 23.1.5 23.6.8.6.3.9 3.5.8 7.1-.1 3.6-.3 10.9-.4 16.4l-.2 9.9-20.7-.7c-11.5-.3-21.6-.6-22.5-.7-2 0-2.5-1.8-.5-2 .6 0 3.2 0 5.7.1s4.3-.1 4-.4c-.3-.2-2.8-.6-5.5-.7-6.3-.2-8.7-.8-8-2 .4-.5 0-.9-.8-.9-1 0-1.4 1.1-1.4 3.5.1 2.3.6 3.5 1.5 3.5s1.3-.7.9-2c-.3-1.1-.1-2 .3-2s.8 2.3.8 5c.1 2.8.4 5.5.7 6 .4.6 11.7 1 30.6 1H785v33l-25.2-.2-25.3-.3 24.8-.2 24.8-.3-.3-3.6-.3-3.6-51.8.2c-28.5 0-52.8.5-54 .9-1.2.5-3.3 2.1-4.6 3.5l-2.4 2.6 25.9.2 25.9.3-27 .5c-14.8.3-27.3.4-27.7.2-.9-.3-1.1-120.6-.1-121.5.3-.4 26.6-.6 58.2-.5l57.6.3.3 17.7zm-125.1 81c-.1 5.1-.3 1-.3-9.2s.2-14.3.3-9.3c.2 5.1.2 13.5 0 18.5zm-361-13.5c-.3 1-.5.4-.5-1.2 0-1.7.2-2.4.5-1.8.2.7.2 2.1 0 3zm276.9 13c-.7.7-2.6-.7-2.6-1.9 0-.6.6-.6 1.5.2.9.7 1.3 1.5 1.1 1.7zm-308.9 21c-.2 1.6-.4.5-.4-2.2 0-2.8.2-4 .4-2.8.2 1.3.2 3.5 0 5zm18.6 2c-2.3.2-6.4.2-9 0-2.6-.2-.7-.3 4.2-.3 5 0 7.1.1 4.8.3zm73.5 0c-1 .2-2.8.2-4 0-1.3-.2-.5-.4 1.7-.4 2.2-.1 3.2.1 2.3.4zm19.9-.1c-.3.3-1.2.4-1.9.1-.8-.3-.5-.6.6-.6 1.1-.1 1.7.2 1.3.5zm20.6.1c-3.5.2-9.1.2-12.5 0-3.5-.2-.7-.3 6.2-.3s9.7.1 6.3.3zm17.5 0c-1.5.2-4.2.2-6 0-1.8-.2-.6-.4 2.7-.4 3.3 0 4.8.2 3.3.4zm78.9-.1c-.3.3-1.2.4-1.9.1-.8-.3-.5-.6.6-.6 1.1-.1 1.7.2 1.3.5zm154.6.1c-6.2.2-16.5.2-23 0-6.5-.1-1.4-.3 11.2-.3 12.7 0 18 .2 11.8.3zm78 0c-.7.2-1.9.2-2.5 0-.7-.3-.2-.5 1.2-.5s1.9.2 1.3.5zm-521.6 12c-.3 1-.5.2-.5-1.7s.2-2.7.5-1.8c.2 1 .2 2.6 0 3.5zm-19.4 2l9.7.6v67.8l8.8-.3 8.7-.3v-68l17.3-.1c9.5-.1 18.2 0 19.3.3 1.8.5 1.9 1.6 1.7 35.2-.2 24-.4 30.2-.8 20.1-.5-15.4-.3-14.7-5.1-14.1-.6.1-.9 2.3-.8 5.8.2 3.2.2 9.7.1 14.5l-.2 8.8h-3.4c-3.7 0-4.6 1.2-4.6 6.1 0 2.5-.4 2.9-2.7 3-1.6.1-3.4.1-4 0-.9-.1-1.3 1.2-1.3 3.9v4l-17.7.1c-9.8.1-20.5.5-23.8.9l-6 .7 5.3.2c3.9.1 5.2.5 5.2 1.6 0 .8.8 1.6 1.8 1.6.9.1 9.8.5 19.7.8l18 .7-28.3.2-28.3.2.1-5.3c.1-2.8-.1-7.1-.5-9.5-.7-4-.9-4.2-4.1-4.2-3.4 0-3.4.1-3.6 4.7l-.2 4.8-.3-4.8-.4-4.7H157v-37.3c0-20.6.3-37.7.7-38 .8-.9 15.9-.9 28.6 0zm91.3.3H290v7.9l6.8.3 6.7.3.3 9.7.3 9.8h9.9v-27.7l10.3-.5c5.6-.3 14-.4 18.7-.4l8.5.1.3 47.3.2 47.2-4.2-.2-4.3-.1 3.8-.4 3.7-.4V645h-6v46.5l-10.4-.3-10.3-.3-.5 2.6c-.3 1.4-.1 2.8.3 3.1.5.3 4.7.4 9.4.3 4.7-.1 8.8.1 9.1.4.4.3-5.3.7-12.5.9l-13.1.3v-5c0-5.1 1.3-8.5 2.7-7.2.4.5.1 1.2-.7 1.7-1.1.7-.8 1 1.3 1 2.6 0 2.7-.1 1.3-1.6-.9-.8-1.4-2-1.1-2.5.4-.5-.1-.9-.9-.9-.9 0-2.1.9-2.8 2-.9 1.4-2.4 2-5 2H308v-5.2c0-5.7 1-5.8 1.9-.1.5 3.2 1 3.8 3.1 3.8 2.3 0 2.5-.4 2.8-5.3.3-5.3.3-5.4-2.5-5.2-6 .4-6.3.2-6.3-3.9 0-3-.4-4-2-4.4-1.1-.3-2.7.1-3.5 1-1.7 1.6-2 3.8-.5 2.8.6-.3.7.1.4.9-.4 1-.1 1.6.7 1.6 1.1 0 1.1.3-.1 1-.8.5-1.3 1-1 1.1 7 1.2 7.8 1.9 2.2 1.9-3.6 0-4.1-.3-4-2.3.1-1.2.1-3.7 0-5.5-.2-3-.4-3.2-4.4-3.4l-4.3-.1 4.3-.4c3.7-.4 4.2-.7 4.2-2.9 0-2.3-.2-2.4-6.9-2.4h-6.9l-.1 14.7c-.1 8.1-.4 14.9-.6 15.1-.2.2-4.2.4-8.9.4s-8.8.4-9.2.9c-.3.5 0 .9.5.9 1.9 0 1.2 1.7-.8 2.3-1.5.3-1.8.1-1.4-1.2.4-1.4.3-1.4-.6-.1-1.6 2.2-1.4 2.8 1.2 3.3 1.2.3.2.4-2.3.3l-4.5-.1-.3-46.7-.2-46.7 2.2-.4c1.3-.2 2.9-.3 3.6-.1.8.2 7 .4 13.8.4zm110.7-.4c7.1.6 7.6.8 7.2 2.8-.2 1.2-.4 22.5-.4 47.3-.1 30.2-.4 45.3-1.1 45.3-.7 0-.9-7.3-.5-21.9.3-12.1.2-22.2-.2-22.4-.5-.3-.7 3.5-.5 8.4.5 13-1.4 10.9-2.1-2.4-1.1-19.9-2.2-16.2-2.1 6.9 0 13.2-.4 22.8-.9 23.1-.5.3-5.7.5-11.6.5-8.9-.1-10.3.1-8.9 1.2 1 .7 1.5 1.5 1.3 1.8-.8.8 10 2.1 17.3 2.2 3.4.1 6.2.4 6.2.8s-7.9.8-17.5 1l-17.5.3V603h11.8c6.6 0 15.3.3 19.5.6zm50.4 24.9c.1 13.7.3 25.6.3 26.2 0 .9 1.6 1.3 4.5 1.3 4.1 0 4.5.2 4.5 2.4 0 1.3.3 3.1.6 4 1.1 2.8 2.4 1.7 2.4-1.9 0-3.3.2-3.5 3.5-3.5h3.5v-54l18.6.2 18.5.3-.1 30c0 16.5-.4 30.3-.8 30.7-.4.4-.6-1.4-.5-4l.1-4.7-.7 4c-.7 3.5-.9 3-1.1-4-.3-7.1-.4-7.5-.9-3l-.5 5-.6-6.5-.7-6.5-.1 8.7-.2 8.8-4.7.2c-4.4.1-4.5.2-1 .5 2 .2 3.5.8 3.2 1.3-.6 1 1.5 1.6 7 2.3 2 .3 1.4.5-1.7.6-4.3.1-4.8.3-4.8 2.4 0 1.4-.6 2.4-1.5 2.4-.8 0-1.5-.9-1.5-2.1-.1-2-2.1-5.6-3.2-5.6-.3 0-.5 1.2-.5 2.8 0 1.5-.3 3.9-.6 5.3-.6 2.4-.9 2.5-5.8 2.1l-5.2-.4.5 4.6.6 4.6h-3.9c-4.1 0-4-.2-4.3 6.5-.1 1.9-.8 2-12.4 2h-12.3l.3 2.5c.3 2.3.8 2.5 5.8 2.8 3 .2 5.2.1 5-.2-.3-.3-2.7-.6-5.3-.7-4.5-.3-5.8-1.1-3.7-2.4.6-.3 1-.2 1 .4 0 .5 3.7 1.2 8.3 1.4 4.5.3 9.9.8 12.1 1.1 5 .9 6.6-.5 6.6-5.9 0-4.6 1.6-6.1 5.2-4.9 1 .3 2.5.1 3.2-.5 1-.9 1.5-.8 2 .5s-.1 1.5-4.1 1.2l-4.8-.3-.3 5.7-.3 5.8H430v-4.9c0-4.7.1-4.8 2.6-4.3 1.9.3 2.5.1 2-.7-.4-.7-.4-2 0-2.9.6-1.4.9-1.1 1.4 1.3.8 3 .8 3 .9-.7.1-3.6 0-3.7-2.3-2.8-1.3.5-2.7.6-3 .3-.3-.4-.6.1-.6 1.1 0 .9.5 1.4 1 1.1.6-.3 1 .1 1 1 0 1.2-.4 1.4-1.6.7-.9-.5-3.6-.7-6-.4-3.3.3-4.4.1-4.5-.9-.4-7.7-.4-7.9 1.4-7.9.9 0 1.6.5 1.5 1.1-.2.6.3 1.4 1.1 1.7.8.2 1.1 0 .8-.5-.3-.5-.2-1.5.4-2.3.6-1.1.9-.5.9 2.2 0 2-.6 3.9-1.2 4.1-.7.3-.2.6 1.2.6 2.4.1 2.5-.1 2.2-4.9-.4-4.9-.5-5-3.3-4.8-1.6.1-2.9.5-2.9.8 0 .4-.7.7-1.5.7-1.1 0-1.5-1.1-1.5-3.9 0-3.7-.1-3.8-3.4-3.8-2.5 0-3.5.5-3.9 2-.8 3.2-2.7 2.3-2.8-1.3 0-1.7-.3-2.6-.6-2-.2.7-2.2 1.3-4.2 1.3h-3.8l-.6-18.8c-.9-24.3-.9-45.7 0-46.6.4-.3 9-.5 19.2-.4l18.6.3.2 25zm143.1-24.8l4.2.5V632h-44v6h39.1l-.3 13.2c-.2 8-.7 13.3-1.3 13.3-1.4 0-1.9-15.5-.5-16.9 1.3-1.3 1.3-4.6 0-4.6-.5 0-.7.7-.3 1.6.3.9.1 1.9-.5 2.3-.7.4-1.2 3.5-1.3 6.9-.1 5.2-.4 6.2-1.9 6.2-1 0-2-.5-2.2-1-.2-.7-7.6-1.3-19.6-1.6l-19.2-.5v7.5c0 6.6.2 7.6 1.8 7.6 1.6.1 1.6.1 0 1.1-1 .5-1.8 1.4-1.8 2 0 .5 1.1.2 2.5-.7 1.4-.9 2.2-2.1 1.8-2.7-.4-.6 0-.8 1-.4 2.4.9 2.1-.6-.3-2.1-1.1-.7-2-1.8-1.9-2.5 0-.9.2-.9.6 0 .2.7 1.2 1.3 2 1.3 1.2 0 1.3-.3.4-1.4-.8-1-.9-1.6-.1-2.1.5-.3 1.1.1 1.1.9.1.9.3 2 .4 2.6.1.5.3 1.5.4 2.1.1.7 6.5 1 20.9.9 11.4-.1 21.5-.2 22.5-.1 1.5.1 1.7 1.5 1.7 13.8v13.8h-86v-47.2c0-44.1.1-47.2 1.8-47.6 2.3-.6 73.5-.6 79 0zm86.3.9c.1 1.1.1 3.8.1 6.1l-.1 4.3H683v31h-8.4c-5.4 0-8.7.4-9.2 1.2-.5.8-.2.9 1 .5 1.2-.5 1.5-.3.9.6-1.2 2-1.4 14.9-.2 16.4.9 1 .8 1.3-.1 1.3-.8 0-1.1.3-.7.6.3.3 1.8-.2 3.4-1.2 2-1.4 4.2-1.8 8.1-1.6l5.2.3V698h-17.5c-16 0-17.5-.2-17.5-1.8 0-3-1.2-15.7-1.5-16-.4-.4-4.5 1.9-6.2 3.5-2 1.8-1.6 3.6.7 3 1.1-.3 2-.1 2 .4s-1.1.9-2.5.9H638v-11.5c0-8.5.3-11.5 1.3-11.5.8 0 .8-.3-.2-.9-.8-.5-1.2-1.8-.9-2.9.5-1.7-.1-2-4.1-2.5-3.9-.4-5.8-.4-11.3.2-.5.1-.8 7-.8 15.3 0 8.4-.4 15.7-.8 16.3-.4.5-3.7 1-7.5 1-4.9 0-6.6.3-6.2 1.2.2.7 0 1.3-.5 1.3-.6 0-1-.7-1-1.6 0-1.1-.8-1.5-3.2-1.2-3.6.3-6.4 3.2-6 6 .2 1-.2 1.8-.7 1.8-.6 0-1.1-.5-1.1-1.2 0-.9-.3-.9-1.2 0-.7.7-1.6 1.2-2 1.2-.4 0-.8-21.5-.8-47.8v-47.7l38.5-.4c37.1-.3 38.5-.3 38.6 1.5zm195.7 13.1l.3 14.3h-21.4c-11.8 0-21.6.2-21.9.5-.3.3-.3 1.7 0 3l.4 2.5H857v26h-12.5c-7.7 0-12.5-.4-12.5-1s4.4-1 11.1-1c7.3 0 10.8-.3 10.4-1-.4-.6-2.6-.8-5.3-.5-2.6.3-7.4.2-10.7-.3l-6-1 8.3-.1c4.7 0 8.2-.5 8.2-1.1 0-.9-32.3-1.6-34.7-.8-.7.3-1.2 18.8-.5 18.8.2 0 1.5-1.1 3-2.5 2.3-2.2 2.5-2.7 1.2-3.5-1.3-.8-1.2-1 .3-1 .9 0 1.7-.4 1.7-1 0-.5-.6-.8-1.2-.6-.7.1-1 .1-.5-.1.4-.3.7-1.1.7-1.9 0-.8.4-1.4.9-1.4s.8 1.6.7 3.5l-.1 3.5 22.2-.2 22.3-.3V699l-42-.3-42-.2-.2-26.5c-.4-38.9-.4-66.3.1-67.8.3-1 8.7-1.2 42-1l41.6.3.3 14.2zm-89.8.3v14h-40v6h23v9h17l-.2 8.7-.2 8.8-.3-8.3c-.2-4.5-.8-8.2-1.3-8.2-.4 0-1.8 1.6-3 3.5-2 3.2-2.1 4.6-1.8 17 .3 11.9.1 13.6-1.3 14-1 .3-2.1.5-2.5.4-.5-.1-3.5-.1-6.6 0-5.8.1-5.8.1-5.8 3.2 0 2.1.4 2.8 1.3 2.3.8-.5.8-.2-.2.9-1.2 1.5-4.2 1.7-28.6 1.7-24.4 0-27.4.2-27.9 1.6-.4.9-.4 1.9-.1 2.2.3.3.5 0 .5-.6 0-.9 6.4-1.2 24-1.2 19.8 0 24 .2 24.7 1.4.5.8 1.9 1.9 3.2 2.4 2.8 1-21.9 2.2-45.6 2.2H688v-29.1l25.2.3 25.3.3v-6l-21.2-.3c-11.7-.1-21.3-.6-21.3-1s9.1-.7 20.2-.6c17.7 0 18.8-.1 8.3-.6l-12-.7 14.1.2c11.3.1 14.1-.2 13.7-1.2-.3-.8.3-1.3 1.8-1.4 7-.4-9.8-1.7-22.8-1.8-12.9-.1-15.3-.3-15.3-1.6 0-.8-.4-1.5-1-1.5-.5 0-1 .5-1 1.1 0 .7-1 .9-2.5.5-2.2-.6-2.4-.4-2 2.4.2 1.6-.1 3-.6 3s-.9-1.3-.9-2.9c0-2.8-.3-3-4.2-3.3l-4.3-.3-.3-19.8-.2-19.7h11v-11h76v14zm-425.1 70.8c-1 1.5-1 1.5-.5-.1.3-1 .7-11.2.8-22.5l.3-20.7.2 20.8c.2 13.9 0 21.4-.8 22.5zM673 654.7c0 9.1-.6 9.2-1.5.3-.3-3.5-.9-6.8-1.1-7.2-.3-.4.2-.8 1-.8 1.3 0 1.6 1.4 1.6 7.7zm98.7-.5c-.3.8-.6.5-.6-.6-.1-1.1.2-1.7.5-1.3.3.3.4 1.2.1 1.9zm-102.2.8c.3.5.1 1-.4 1-.6 0-1.1-.5-1.1-1 0-.6.2-1 .4-1 .3 0 .8.4 1.1 1zm67.5 4.1c1 .7-4.6.7-15.5.3-9.3-.4-18-.7-19.2-.7-1.3.1-2.3-.2-2.3-.6 0-1 35.3 0 37 1zm-166.2.4c-.9.9-35.7 1.1-35.1.2.2-.4 8.3-.7 18-.7s17.4.2 17.1.5zm-79.8 3c0 1.7-.5 2.5-1.7 2.4-1.1 0-1.3-.3-.5-.6.6-.2 1.2-1.3 1.2-2.4 0-1 .2-1.9.5-1.9s.5 1.1.5 2.5zm138.5-1.5c-.3.5-1.7 1-3.1 1-1.3 0-2.4-.5-2.4-1 0-.6 1.4-1 3.1-1 1.7 0 2.8.4 2.4 1zm5.5 0c0 .5-.7 1-1.5 1s-1.5-.5-1.5-1c0-.6.7-1 1.5-1s1.5.4 1.5 1zm-58 2c0 1.2-33.6 1.4-34.3.2-.3-.4 7.3-.8 16.9-1 11.3-.1 17.4.1 17.4.8zm249.4-.1c.3.5-.3 1.1-1.4 1.4-1.1.3-1.8.1-1.5-.3.3-.5-.1-1.1-.7-1.3-.7-.3-.3-.6.9-.6 1.2-.1 2.4.3 2.7.8zm-192 .9c.2.4-.7.8-2.2.9-2.4.2-2.4.1-.7-.7 1.1-.5 2.1-.9 2.2-.9.1-.1.4.3.7.7zm-5.4 1.4c0 .4-.4.8-.9.8-.6 0-1.2-.4-1.5-.8-.3-.5.1-.9.9-.9s1.5.4 1.5.9zm-3 3.2c0 1.4-.3 2.7-.7 2.9-.5.3-.8-.8-.8-2.4 0-1.6.3-2.9.8-2.9.4 0 .7 1.1.7 2.4zm-143.1 1.8c0 3.1-.1 3.1-1 1-.5-1.3-.7-2.8-.3-3.3 1-1.6 1.4-.9 1.3 2.3zM629 682.5c0 8.5-.3 15.5-.7 15.5-.5 0-.9-7-.9-15.5-.1-8.5.2-15.5.7-15.5.5 0 .9 7 .9 15.5zm-92-12.4c0 .5-.4.9-1 .9-.5 0-1-.7-1-1.6 0-.8.5-1.2 1-.9.6.3 1 1 1 1.6zm-245 13.4V698h-11c-7.5 0-11-.4-11-1.1 0-.9 2.9-1 10.5-.5l10.5.7v-14c0-7.8.2-14.1.5-14.1s.5 6.5.5 14.5zm524.2-12.1c.7-.4.8-.2.4.4-1.2 2-2.6 1.3-2.5-1.1.1-1.7.2-1.8.6-.4.2.9.9 1.4 1.5 1.1zM487 675.6c0 2.4-.3 2.5-5 2.2-2.7-.2-5-.7-5-1.2 0-.4.9-.6 2-.3s2 0 2-.5c0-.6.6-.6 1.5.2 1.5 1.2 3.5.6 3.5-1.2 0-.5-.7-.7-1.6-.4-1.4.5-1.5.4-.4-.9 1.6-2 3-1 3 2.1zm-75.6-.1c-.4.8-.1 1.5.5 1.5s1.1.4 1.1 1c0 .5-.7 1-1.5 1-.9 0-1.5-.9-1.5-2.5 0-1.4.4-2.5 1-2.5.5 0 .7.7.4 1.5zm-163.1 1.4c-.5 1.8 2.5 1.2 3-.7.4-1.3.5-1.1.6.5.1 1.8-.4 2.3-2.5 2.3-1.9 0-2.5-.4-2.1-1.4.3-.8.2-1.7-.4-2-.5-.2-.4-.3.3-.2.7.2 1.2.9 1.1 1.5zm226.1-1.3c.9.3 1.6 1.5 1.6 2.6 0 1 .4 1.7.9 1.4.5-.4.8.1.7.9-.3 2-1.9 2-2.2-.1-.5-3-1.4-4.5-2.4-3.9-.5.3-1 .1-1-.4 0-1.3.3-1.3 2.4-.5zm-228.9 3c-.6.2-.9 2.4-.7 4.9l.4 4.5H236v5c0 4.6-.2 5-2.2 4.9-1.7-.1-1.9-.2-.5-.6 1.3-.3 1.7-1.5 1.7-4.8 0-4.7 1-5.9 5-6 2 0 2.6-.6 2.8-3 .4-4.3 1-5.5 2.4-5.4.7 0 .8.2.3.5zm145.2 7.6c-.2 1.3-.4.3-.4-2.2s.2-3.5.4-2.3c.2 1.3.2 3.3 0 4.5zm74.3 2.1c0 .5-.4.5-1 .2-.5-.3-1-1.4-1-2.3 0-1.5.2-1.5 1-.2.5.8 1 1.9 1 2.3zm289.7-2.7c-.3.3-1.2.4-1.9.1-.8-.3-.5-.6.6-.6 1.1-.1 1.7.2 1.3.5zm10.6 3.1l-7.3.4v4.4c0 4.4-.1 4.5-3.2 4.5-2.5 0-2.9-.3-1.8-1 .8-.5 1.1-1 .5-1-.5 0-.2-.6.7-1.4 1-.7 2.2-2.5 2.7-3.9 1-2.6 1.3-2.7 8.3-2.5l7.3.2-7.2.3zm-9.3.7c0 .3-.4.8-1 1.1-.5.3-1 .1-1-.4 0-.6.5-1.1 1-1.1.6 0 1 .2 1 .4zM392 692c0 .5-.4 1-1 1-.5 0-1-.5-1-1 0-.6.5-1 1-1 .6 0 1 .4 1 1zm361 1c0 .5-.4 1-1 1-.5 0-1-.5-1-1 0-.6.5-1 1-1 .6 0 1 .4 1 1zm-480 1c-2 1.3-4.3 1.3-3.5 0 .3-.6 1.6-1 2.8-1 1.8 0 1.9.2.7 1zm8.5 0c.4.7-.3.8-2.2.4-3.8-.9-4.2-1.4-1-1.4 1.4 0 2.9.5 3.2 1zm105-.1c-.6.4-3.2.5-6 .1l-5-.7 6-.2c3.4 0 5.5.3 5 .8zm73.5.1c0 .6-2.1.8-5.7.4-7.8-.9-7.9-1.4-.5-1.4 3.5 0 6.2.4 6.2 1zm3.4.5c-.7 1.6-2.4 2.1-2.4.6 0-.8.7-1.3 2.7-2 .1-.1 0 .6-.3 1.4zm136.6 0c-.7.8-1.7 1.5-2.2 1.5-1.1 0 1.4-2.9 2.6-3 .5 0 .3.7-.4 1.5zm5.7 3.1c-.3.3-1.2.4-1.9.1-.8-.3-.5-.6.6-.6 1.1-.1 1.7.2 1.3.5z"/><path d="M655.8 396l.4 8h2.9c2.9 0 2.9 0 2.9-6v-6h12v5.5c0 5.2.1 5.5 2.5 5.5s2.5-.2 2.5-7.5V388h-23.5l.3 8zm6.6 9.4c-1.3 3.4.4 4.7 5.3 4.4 4.3-.3 4.8-.5 4.8-2.8s-.5-2.5-4.8-2.8c-3.5-.2-4.9.1-5.3 1.2zm-39 12.5c-.2.2-.4 4.4-.4 9.2v8.8l3-.6c2.8-.5 3-.4 3 2.6 0 3.1 0 3.1 5.5 3.1 5.4 0 5.5 0 5.5-3 0-2.6.3-3 2.9-3h2.9l.4-8.1c.2-4.5.1-8.4-.2-8.8-.6-.7-21.9-.9-22.6-.2zm16.8 6.1c.2.6.2 3.1 0 5.5l-.4 4.5H630v-11h4.9c2.7 0 5.1.5 5.3 1zM423 514.5V525h20v-21h-20v10.5zM589.2 541c0 1.4.2 1.9.5 1.2.2-.6.2-1.8 0-2.5-.3-.6-.5-.1-.5 1.3zm5.6-1.3c1.2.2 3 .2 4 0 .9-.3-.1-.5-2.3-.4-2.2 0-3 .2-1.7.4zm1 3c2.3.2 6.1.2 8.5 0 2.3-.2.4-.4-4.3-.4s-6.6.2-4.2.4zm-37.7 2c-.1 1.7 1.6 2.5 2.5 1.2.4-.7.3-.9-.4-.5-.5.3-1.3 0-1.5-.6-.4-.9-.6-1-.6-.1zm39.9.4c0 .9 3.1 2.1 3.8 1.4.3-.3-.1-.5-.9-.6-.8-.1-.3-.5 1.1-.9 2.3-.8 2.2-.8-.7-.7-1.8.1-3.3.4-3.3.8zm7.5-.1c-.3.5-.1 1 .4 1 .6 0 1.1-.5 1.1-1 0-.6-.2-1-.4-1-.3 0-.8.4-1.1 1zm-52.7.7c.6.2 1.8.2 2.5 0 .6-.3.1-.5-1.3-.5-1.4 0-1.9.2-1.2.5zm40.5 10.8c0 2.7.2 3.8.4 2.2.2-1.5.2-3.7 0-5-.2-1.2-.4 0-.4 2.8zm-2.2 1.1c0 1.1.3 1.4.6.6.3-.7.2-1.6-.1-1.9-.3-.4-.6.2-.5 1.3zm124-7.3c.1 6.4.5 11.7.9 11.7 2.3 0 3.1-3.3 2.7-11.7l-.3-8.8-.2 9.2c-.1 5.6-.6 9.3-1.2 9.3-.7 0-1-3.7-.9-10.1.1-5.5-.2-10.3-.5-10.7-.4-.3-.6 4.6-.5 11.1zm5.1 2.1c.1 1.5.7 2.5 1.3 2.3 1.4-.5 1.3-3.9-.2-4.4-.9-.3-1.2.4-1.1 2.1zm.3 4.6c-.3.6.1.7.9.4 1.8-.7 2.1-1.4.7-1.4-.6 0-1.3.4-1.6 1zm57.5 20.7c0 1.3.5 2.3 1 2.3 1.3 0 1.3-1.1 0-3-.8-1.2-1-1.1-1 .7zm3 .4c0 1.1.5 1.7 1 1.4.6-.3 1-1.3 1-2.1s-.4-1.4-1-1.4c-.5 0-1 .9-1 2.1zm-592 79.6c0 7.7.4 12.2.9 11.4.5-.7 1.3-1.1 1.8-.8.5.3.8-4.4.8-10.8 0-12.5.7-14 1.6-3.7l.6 6.7V645H189v12.7zm-11.7 27.1c-2.2 1.4-.8 4.7 2 5 2.4.3 2.7 0 2.7-2.7 0-3.2-1.9-4.1-4.7-2.3zm2.4 3.4c-.3.8-.6.5-.6-.6-.1-1.1.2-1.7.5-1.3.3.3.4 1.2.1 1.9zm2.8 7.8c.3.5.8 1 1.1 1 .2 0 .4-.5.4-1 0-.6-.5-1-1.1-1-.5 0-.7.4-.4 1zM390 645.4c0 .2.7.6 1.5 1 .8.3 1.5.1 1.5-.4 0-.6-.7-1-1.5-1s-1.5.2-1.5.4zm-26.8 48.8c-.8 1-.4 1.3 1.5 1.5 1.5 0 2.2-.2 1.7-.6-.5-.3-1.2-1-1.5-1.4-.3-.4-1.1-.2-1.7.5zm6.6 2.5c1.2.2 3.2.2 4.5 0 1.2-.2.2-.4-2.3-.4s-3.5.2-2.2.4zm62.7-39.6c-1.1 1.6-.1 1.9 1.3.3.7-.8.8-1.4.3-1.4s-1.3.5-1.6 1.1zm-25.9 6.6c-.6 1.4-.5 1.5.5.6.7-.7 1-1.5.7-1.8-.3-.3-.9.2-1.2 1.2zm-2.5 2.9c0 1.1.3 1.4.6.6.3-.7.2-1.6-.1-1.9-.3-.4-.6.2-.5 1.3zm177.9 9.2c-.9 1-1.7 4.5-2 8.7l-.5 7-5.7-.3c-4.8-.3-5.8-.1-5.8 1.2 0 1.2-1 1.6-4 1.6-2.2 0-4-.5-4-1 0-.6-3.3-1-7.9-1-7 0-7.9.2-8.4 2s-1.5 2-16.3 2.3c-8.8.1.7.3 20.9.4l36.8.2-.2-9.4c-.1-5.2-.7-9.5-1.1-9.5-.5 0-.6-.9-.3-2 .8-2.4.5-2.5-1.5-.2zm1 7.4c0 2.8-.2 4.9-.4 4.7-.8-.9-1.3-9.9-.5-9.9.5 0 .9 2.3.9 5.2zm-73.8 8.5c-.7.3-1.7 1.4-2.3 2.6-.7 1.2-.8 1.9-.4 1.5.4-.4 1.6-.3 2.6.2 1.4.8 1.9.6 2.4-1.1.8-2.3-.3-3.9-2.3-3.2zm1.8 1.8c0 .8-.7 1.5-1.6 1.5-1.4 0-1.4-.3-.4-1.5.7-.8 1.4-1.5 1.6-1.5.2 0 .4.7.4 1.5z"/><path d="M537.8 694.7c1.2.2 3 .2 4 0 .9-.3-.1-.5-2.3-.4-2.2 0-3 .2-1.7.4zm92.2-60.3c0 1.9.3 3.7.8 3.9.4.3 4.2.2 8.5 0l7.7-.6V631h-17v3.4zm48.7 33.4c-2.4 2.5-2.6 3.4-2.9 13.2l-.3 10.4-10-.3c-9.9-.2-10-.2-11.2 2.3-1.2 2.9.1 4.6 2 2.7.6-.6 3.6-1.1 6.7-1 4.2.1 4.9.3 3 .9-2.1.7-1.8.8 1.9.9 3.8.1 4.3-.1 3.8-1.8-.4-1.6 0-1.9 2.4-1.9 1.7.1 2.9.7 2.9 1.5 0 .7.5 1.3 1.1 1.3.6 0 .9-1 .8-2.3-.2-1.2.1-2.8.5-3.6.6-.9.5-1.2-.1-.8-.6.4-1-1.8-1-6.1.1-6.6.1-6.6.4-1 .8 11.9 2.8 3.7 3.3-13 0-2.3-.1-4.2-.3-4.2-.2 0-1.5 1.2-3 2.8zm-28.1 16.8c-.9.8-1.6 2.1-1.6 2.9 0 1.5 2.7 2.8 4.1 1.9 1.4-.9 1-2.4-.5-1.8-.8.3-1.7.1-2.1-.5-.3-.6.4-1.5 1.6-1.9 1.3-.5 1.8-1.1 1.2-1.5-.6-.4-1.9 0-2.7.9z"/><path d="M673 695.8c0 .5.7.9 1.5.9s1.2-.4.9-.9c-.3-.4-.9-.8-1.5-.8-.5 0-.9.4-.9.8zm180.2-52.9c-2.2 1.9-2.8 3.1-1.4 3.1.7-.1 4.6-5 3.9-5-.2 0-1.4.8-2.5 1.9zm-2.1 8.8c.1 5.3.6 4.9 1.1-1 .2-2 0-3.7-.4-3.7s-.8 2.1-.7 4.7zM850 658c0 .5.6 1 1.4 1 .8 0 1.8-.5 2.1-1 .3-.6-.3-1-1.4-1-1.2 0-2.1.4-2.1 1zm7.7 32.4c-.4 1.1-.3 2.4.3 3 1.5 1.5 1.2 2.9-.5 2.2-.8-.3-1.5-.1-1.5.4 0 .6 1.1 1 2.5 1s2.5-.4 2.5-.9.3-1.7.6-2.5c.4-1.2.2-1.5-.9-1-1.1.4-1.6-.2-1.9-1.8-.3-2.1-.4-2.1-1.1-.4zm-69.6 1.8c-.3 4.9-.9 4.8 30.3 4.7 16-.1 30.2-.4 31.6-.8l2.5-.7-2.9-.8c-1.6-.4-10.9-.5-20.5-.2-12.2.4-16.5.3-14.1-.4 1.9-.6 6.4-1 10-.9 3.6 0 10.3 0 15-.2 16.5-.4 0-1.6-25.4-1.8l-23.9-.2.5 2.5c.7 3.4-.8 3.3-2-.2-.6-1.5-1.1-2-1.1-1zm21.4 2.1c.7.7.4.8-.8.3-1-.3-4.4-.6-7.5-.6-3.4 0-5.2-.4-4.4-.9 1.7-1 11.4-.2 12.7 1.2zm44.3-1.6c.7.3 1.6.2 1.9-.1.4-.3-.2-.6-1.3-.5-1.1 0-1.4.3-.6.6zM702.5 652c.3.5.8 1 1.1 1 .2 0 .4-.5.4-1 0-.6-.5-1-1.1-1-.5 0-.7.4-.4 1zm-7.3 1.1c1.8 1.2 4.6 1.1 5.3-.1.3-.5-.9-.9-3-.8-2.3.1-3.1.4-2.3.9zm1.8 41.8c0 .8-.7 1.1-2 .8-1.1-.3-2-.1-2 .4s10.9.9 25.5.9c21.4 0 25.5-.2 25.5-1.4s-3.2-1.4-19.7-1.3c-11.8.1-20.1.6-20.5 1.2-.5.6-.8.5-.8-.3 0-.6-.9-1.2-2-1.2s-2 .6-2 1.2c0 .9-.4.8-1-.2-.8-1.2-1-1.2-1-.1zm58 1.1c0 .5.5 1 1.1 1 .5 0 .7-.5.4-1-.3-.6-.8-1-1.1-1-.2 0-.4.4-.4 1zM465.3 342.5c-.7 2 .1 11.3 1.1 12.3.4.4 23 .9 50.2 1l49.4.4v-6.4l5.5.4 5.5.3V341h-55.5c-49.1 0-55.6.2-56.2 1.5zm65.7 58v4.5h-9v8h-4c-3.5 0-4 .3-4 2.2 0 5.3-1.1 6.8-4.7 6.8h-3.4l.3 5.7.3 5.7 3.5.1c3.4 0 3.5.1 3.3 3.7l-.2 3.8H546v-8h-23v-3.5c0-3.4.1-3.5 4-3.5h4v-11h3.9c3.9 0 4-.1 4.3-3.8.3-3.5.5-3.7 4.1-4l3.8-.3-.3-5.2-.3-5.2-7.7-.3-7.8-.3v4.6zm-44.3-2.8c-.4.3-.7 1.9-.7 3.5 0 2.8-1.1 3.3-6.7 3.1-.9-.1-1.3 1.4-1.3 4.3 0 4.4 0 4.4-3.5 4.4-3.4 0-3.5.1-3.5 4 0 3.8-.2 4-3 4h-3.1l.3 10.2.3 10.3h7c3.9-.1 12.1-.2 18.3-.3l11.2-.2v-8h-23v-4c0-4 0-4 3.9-4h4l.3-4.8.3-4.7 4.3-.3c4.1-.3 4.2-.4 4.2-3.8 0-3.2.2-3.4 3.5-3.4h3.5v-11h-7.8c-4.3 0-8.2.3-8.5.7zm218.2 37.8c-.1 3-.2 6.5-.2 7.7-.1 2.1.4 2.3 5.1 2.6l5.2.3V430h-10l-.1 5.5z"/></svg>