<svg width="32" height="32" fill="none" xmlns="http://www.w3.org/2000/svg"><defs><clipPath id="a"><rect rx="-.5" width="31" height="31" transform="translate(.5 .5)" fill="#fff" fill-opacity="0"/></clipPath></defs><rect rx="-.5" width="31" height="31" transform="translate(.5 .5)"/><g clip-path="url(#a)"><path d="M12 15.99a5.4 5.4 0 00-2.97.9c-.87.59-1.56 1.42-1.96 2.4-.41.97-.51 2.04-.31 3.08a5.362 5.362 0 004.2 4.19c1.03.2 2.1.1 3.08-.31.97-.4 1.8-1.08 2.39-1.96.59-.88.9-1.91.9-2.96v-16c0 1.76.7 3.46 1.95 4.71A6.675 6.675 0 0024 11.99" stroke="#D5C9BE" stroke-width="2" stroke-linejoin="round" stroke-linecap="round"/></g></svg>